<svg xmlns="http://www.w3.org/2000/svg" viewBox="0 0 24 24" role="img"><title>HackerRank</title><path fill="#00EA64" d="M12 0c1.285 0 9.75 4.886 10.392 6 .645 1.115.645 10.885 0 12S13.287 24 12 24s-9.75-4.885-10.395-6c-.641-1.114-.641-10.885 0-12C2.25 4.886 10.715 0 12 0zm2.295 6.799c-.141 0-.258.115-.258.258v3.875H9.963V7.057c0-.143-.117-.258-.26-.258h-1.8c-.14 0-.258.115-.258.258v9.886c0 .143.118.258.258.258h1.8c.143 0 .26-.115.26-.258v-3.875h4.074v3.875c0 .143.117.258.258.258h1.8c.14 0 .258-.115.258-.258V7.057c0-.143-.118-.258-.258-.258h-1.8z"/></svg>