<svg xmlns="http://www.w3.org/2000/svg" viewBox="0 0 796 796" fill="#1C4980">
  <path d="M397.6,0.4C178.6,0.4,0,179,0,398s178.6,397.6,397.6,397.6S795.2,617,795.2,398C795.1,179,616.5,0.4,397.6,0.4z M357.7,559h-82.6v-37.3c-23.8,36.2-52.6,51.5-96.1,51.5c-69,0-107.5-39.6-107.5-110.3V240.6h83.1v204.7c0,38.5,17.5,57.1,53.2,57.1c40.7,0,66.7-24.9,66.7-62.8V240h83.1v319H357.7z M640.5,559V362.2c0-37.9-17.5-57.1-53.2-57.1c-40.7,0-66.7,24.9-66.7,62.8V559h-83.1V240h82.6v0.6v45.8c23.8-36.2,52.6-51.5,96.1-51.5c69,0,107.5,39.6,107.5,110.3V559H640.5z"/>
</svg>